# AST/ASF file generated using VICON BodyLanguage
# -----------------------------------------------
:version 1.10
:name VICON
:units
  mass 1.0
  length 0.45
  angle deg
:documentation
   .ast/.asf automatically generated from VICON data using
   VICON BodyBuilder and BodyLanguage model FoxedUp or BRILLIANT.MOD
:root
   order TX TY TZ RX RY RZ
   axis XYZ
   position 0 0 0  
   orientation 0 0 0 
:bonedata
  begin
     id 1 
     name lhipjoint
     direction 0.528046 -0.759594 0.379717 
     length 2.39752 
     axis 0 0 0  XYZ
  end
  begin
     id 2 
     name lfemur
     direction 0.34202 -0.939693 0  
     length 7.31175  
     axis 0 0 20  XYZ
    dof rx ry rz
    limits (-160.0 20.0)
           (-70.0 70.0)
           (-60.0 70.0)
  end
  begin
     id 3 
     name ltibia
     direction 0.34202 -0.939693 0   
     length 7.52482   
     axis 0 0 20   XYZ
    dof rx
    limits (-10.0 170.0)
  end
  begin
     id 4 
     name lfoot
     direction 0.0675379 -0.185559 0.980309   
     length 2.00961   
     axis -90 7.62852e-016 20   XYZ
    dof rx rz
    limits (-45.0 90.0)
           (-70.0 20.0)
  end
  begin
     id 5 
     name ltoes
     direction 1.5352e-011 -4.22286e-011 1   
     length 1.01383   
     axis -90 7.62852e-016 20   XYZ
    dof rx
    limits (-90.0 20.0)
  end
  begin
     id 6 
     name rhipjoint
     direction -0.510274 -0.769251 0.384544   
     length 2.36742  
     axis 0 0 0  XYZ 
  end
  begin
     id 7 
     name rfemur
     direction -0.34202 -0.939693 0   
     length 7.45325   
     axis 0 0 -20   XYZ
    dof rx ry rz
    limits (-160.0 20.0)
           (-70.0 70.0)
           (-70.0 60.0)
  end
  begin
     id 8 
     name rtibia
     direction -0.34202 -0.939693 0   
     length 7.49587   
     axis 0 0 -20   XYZ
    dof rx
    limits (-10.0 170.0)
 end
 begin
     id 9 
     name rfoot
     direction -0.106475 -0.292536 0.950308   
     length 2.20898  
     axis -90 -7.62852e-016 -20   XYZ
    dof rx rz
    limits (-45.0 90.0)
           (-20.0 70.0)
  end
  begin
     id 10 
     name rtoes
     direction -1.53597e-011 -4.22023e-011 1   
     length 1.10065   
     axis -90 -7.62852e-016 -20   XYZ
    dof rx
    limits (-90.0 20.0)
  end
  begin
     id 11 
     name lowerback
     direction 0.0260024 0.998026 -0.0571652   
     length 2.11214   
     axis 0 0 0   XYZ
    dof rx ry rz
    limits (-20.0 45.0)
           (-30.0 30.0)
           (-30.0 30.0)
  end
  begin
     id 12 
     name upperback
     direction 0.0216202 0.999542 -0.0211766   
     length 2.11689   
     axis 0 0 0   XYZ
    dof rx ry rz
    limits (-20.0 45.0)
           (-30.0 30.0)
           (-30.0 30.0)
  end
  begin
     id 13 
     name thorax
     direction 0.00883312 0.999944 0.00589057   
     length 2.11821   
     axis 0 0 0   XYZ
    dof rx ry rz
    limits (-20.0 45.0)
           (-30.0 30.0)
           (-30.0 30.0)
  end
  begin
     id 14 
     name lowerneck
     direction -0.059386 0.994433 0.0870401   
     length 1.81176   
     axis 0 0 0   XYZ
    dof rx ry rz
    limits (-20.0 45.0)
           (-30.0 30.0)
           (-30.0 30.0)
  end
  begin
     id 15 
     name upperneck
     direction 0.0506457 0.97328 -0.223967   
     length 1.82382   
     axis 0 0 0   XYZ
    dof rx ry rz
    limits (-20.0 45.0)
           (-30.0 30.0)
           (-30.0 30.0)
  end
  begin
     id 16
     name head
     direction 0.0205902 0.996147 -0.0852487  
     length 1.84805  
     axis 0 0 0   XYZ
    dof rx ry rz
    limits (-20.0 45.0)
           (-30.0 30.0)
           (-30.0 30.0)
  end
  begin
     id 17 
     name lclavicle
     direction 0.949493 0.303881 -0.0782325  
     length 3.60584  
     axis 0 0 0   XYZ
    dof ry rz
    limits (-20.0 10.0)
           (0.0 20.0)
  end
  begin
     id 18 
     name lhumerus
     direction 1 -4.48965e-011 1.48782e-027   
     length 4.95681   
     axis 180 -30 -90   XYZ
    dof rx ry rz
    limits (-60.0 90.0)
           (-90.0 90.0)
           (-90.0 90.0)
  end
  begin
     id 19
     name lradius
     direction 1 -4.48952e-011 2.06528e-027   
     length 3.40915   
     axis 180 -30 -90   XYZ
    dof rx
    limits (-10.0 170.0)
  end
  begin
     id 20
     name lwrist
     direction 1 -4.48964e-011 1.28021e-027   
     length 1.70457   
     axis -1.61767e-015 90 90   XYZ
    dof ry
    limits (-180.0 0.0)
 end
  begin
     id 21 
     name lhand
     direction 1 -4.49094e-011 2.54887e-027   
     length 0.616403   
     axis -1.63363e-015 90 90   XYZ
    dof rx rz
    limits (-90.0 90.0)
           (-45.0 45.0)
  end
  begin
     id 22 
     name lfingers
     direction 1 -4.49002e-011 5.11407e-027   
     length 0.49696   
     axis -3.26723e-015 90 90   XYZ
    dof rx
    limits (0.0 90.0)
  end
  begin
     id 23
     name lthumb
     direction 0.707107 -6.34998e-011 0.707107   
     length 0.713539   
     axis -90 45 -2.25915e-014   XYZ
    dof rx rz
    limits (-45.0 45.0)
           (-45.0 45.0)
  end
  begin
     id 24 
     name rclavicle
     direction -0.937751 0.334612 -0.0930482   
     length 3.46287  
     axis 0 0 0   XYZ 
    dof ry rz
    limits (-10.0 20.0)
           (-20.0 0.0)
  end
  begin
     id 25 
     name rhumerus
     direction -1 -4.48962e-011 3.59972e-027  
     length 5.352   
     axis 180 30 90   XYZ
    dof rx ry rz
    limits (-90.0 60.0)
           (-90.0 90.0)
           (-90.0 90.0)
  end
  begin
     id 26 
     name rradius
     direction -1 -4.48987e-011 -3.76925e-027   
     length 3.43721   
     axis 180 30 90   XYZ
    dof rx
    limits (-10.0 170.0)
  end
  begin
     id 27 
     name rwrist
     direction -1 -4.48943e-011 1.28112e-027   
     length 1.7186   
     axis -1.61767e-015 -90 -90   XYZ
    dof ry
    limits (-180.0 0.0)
  end
  begin
     id 28
     name rhand
     direction -1 -4.49027e-011 2.55483e-027   
     length 0.72009   
     axis -1.63363e-015 -90 -90   XYZ
    dof rx rz
    limits (-90.0 90.0)
           (-45.0 45.0)
  end
  begin
     id 29
     name rfingers
     direction -1 -4.48827e-011 5.14506e-027   
     length 0.580555   
     axis -3.26723e-015 -90 -90   XYZ
    dof rx
    limits (0.0 90.0)
  end
  begin
     id 30
     name rthumb
     direction -0.707107 -6.34936e-011 0.707107   
     length 0.833564   
     axis -90 -45 2.25915e-014   XYZ
    dof rx rz
    limits (-45.0 45.0)
           (-45.0 45.0)
  end
:hierarchy
  begin
    root lhipjoint rhipjoint lowerback
    lhipjoint lfemur
    lfemur ltibia
    ltibia lfoot
    lfoot ltoes
    rhipjoint rfemur
    rfemur rtibia
    rtibia rfoot
    rfoot rtoes
    lowerback upperback
    upperback thorax
    thorax lowerneck lclavicle rclavicle
    lowerneck upperneck
    upperneck head
    lclavicle lhumerus
    lhumerus lradius
    lradius lwrist
    lwrist lhand lthumb
    lhand lfingers
    rclavicle rhumerus
    rhumerus rradius
    rradius rwrist
    rwrist rhand rthumb
    rhand rfingers
  end

#!OML:ASF H:\Terrain\Patient Classification 1\Terrain2\Thursday\justin.ASF
:FULLY-SPECIFIED
:DEGREES
293
root -11.8222 17.3057 20.7622 -156.527 83.4087 -156.096
lowerback 7.34214 1.1243 -0.690413
upperback 3.41112 1.56656 1.32968
thorax -0.650811 0.810318 1.63313
lowerneck -9.70424 -4.1404 -9.89923
upperneck 38.6325 -2.87382 3.70633
head 15.4744 -1.49733 3.0885
rclavicle -5.62809e-015 1.75303e-014
rhumerus -32.7583 -6.62849 -81.1454
rradius 38.8652
rwrist -11.0324
rhand -22.821 17.2318
rfingers 7.12502
rthumb 3.61597 -12.7173
lclavicle -5.62809e-015 1.75303e-014
lhumerus -36.0699 11.4169 80.3449
lradius 32.6601
lwrist 3.56636
lhand -17.989 19.2077
lfingers 7.12502
lthumb 8.28096 49.0254
rfemur -33.3846 -15.8498 20.4978
rtibia 65.8279
rfoot -14.1967 -6.26411
rtoes -0.704739
lfemur -8.99842 5.4761 -21.7649
ltibia 32.727
lfoot -19.4895 -8.70456
ltoes 21.0742
294
root -11.7706 17.2932 20.7751 -165.981 83.1467 -165.714
lowerback 7.31004 0.86944 -1.96982
upperback 3.3517 1.13691 1.15118
thorax -0.697846 0.583652 2.2025
lowerneck -9.60593 -4.00213 -9.98306
upperneck 38.5404 -2.64931 3.66901
head 15.385 -1.42049 3.11866
rclavicle 1.46666e-014 -4.95719e-015
rhumerus -32.8108 -5.98338 -81.2605
rradius 38.6965
rwrist -11.4975
rhand -22.8263 17.2845
rfingers 7.12502
rthumb 3.61087 -12.6647
lclavicle 1.46666e-014 -4.95719e-015
lhumerus -36.0967 11.2979 80.3522
lradius 32.8758
lwrist 3.69895
lhand -18.0624 19.4853
lfingers 7.12502
lthumb 8.21015 49.3057
rfemur -34.0076 -16.2903 19.4017
rtibia 64.9594
rfoot -14.4541 -5.90963
rtoes 7.77548
lfemur -8.7988 4.86983 -22.8765
ltibia 32.533
lfoot -19.702 -9.2597
ltoes 21.7322
295
root -11.7146 17.3068 20.7722 -157.325 82.9003 -156.699
lowerback 7.56359 0.751975 -1.18383
upperback 3.43118 1.04828 1.6899
thorax -0.7487 0.547332 2.32057
lowerneck -9.65553 -3.91814 -10.3222
upperneck 38.5551 -2.37514 3.52361
head 15.391 -1.37378 3.15879
rclavicle 1.22812e-014 7.33018e-015
rhumerus -32.8212 -4.93797 -81.1227
rradius 38.5433
rwrist -12.0707
rhand -23.0384 17.1291
rfingers 7.12502
rthumb 3.40598 -12.8234
lclavicle 1.22812e-014 7.33018e-015
lhumerus -36.1755 11.8991 80.4565
lradius 33.1075
lwrist 3.43652
lhand -17.6894 19.5804
lfingers 7.12502
lthumb 8.57008 49.3865
rfemur -33.9921 -15.4964 20.722
rtibia 63.762
rfoot -14.7392 -6.3557
rtoes 12.3131
lfemur -8.17715 5.22481 -21.457
ltibia 32.4117
lfoot -20.3724 -9.53018
ltoes 19.1913
296
root -11.6588 17.3161 20.7756 -156.93 82.7155 -156.219
lowerback 7.61105 0.769336 -1.1852
upperback 3.46432 1.07382 1.73539
thorax -0.742789 0.56048 2.36593
lowerneck -9.76448 -3.98342 -10.3511
upperneck 38.6346 -2.48034 3.60992
head 15.4693 -1.41176 3.18802
rclavicle -6.79595e-015 1.02374e-014
rhumerus -32.9122 -5.21319 -80.9322
rradius 38.2904
rwrist -11.7937
rhand -23.0467 16.9293
rfingers 7.12502
rthumb 3.39804 -13.0233
lclavicle -6.79595e-015 1.02374e-014
lhumerus -36.1399 12.0431 80.4208
lradius 33.3882
lwrist 3.32855
lhand -17.78 19.4542
lfingers 7.12502
lthumb 8.48269 49.2639
rfemur -34.1967 -15.3883 20.9328
rtibia 62.4769
rfoot -14.8206 -6.37111
rtoes 13.4895
lfemur -7.87046 5.80054 -21.1779
ltibia 32.3471
lfoot -20.8466 -9.26026
ltoes 14.434
297
root -11.6068 17.3107 20.7864 -163.274 82.592 -162.635
lowerback 7.62698 0.806876 -1.93193
upperback 3.45076 1.0642 1.44306
thorax -0.77134 0.549446 2.48512
lowerneck -9.58136 -4.04469 -10.2832
upperneck 38.4258 -2.70658 3.82129
head 15.34 -1.4688 3.22417
rclavicle -9.10139e-015 6.02566e-015
rhumerus -33.1209 -5.84245 -80.8142
rradius 38.0596
rwrist -11.3868
rhand -22.8336 16.7475
rfingers 7.12502
rthumb 3.60377 -13.2018
lclavicle -9.10139e-015 6.02566e-015
lhumerus -36.0569 11.6489 80.4221
lradius 33.6941
lwrist 3.83022
lhand -18.4453 19.1892
lfingers 7.12502
lthumb 7.84052 49.0238
rfemur -34.5004 -15.7281 20.1542
rtibia 61.1278
rfoot -14.7263 -6.10596
rtoes 11.798
lfemur -7.73871 6.12067 -21.8922
ltibia 32.3476
lfoot -21.1174 -9.30265
ltoes 11.3506
298
root -11.5485 17.3098 20.7984 -159.466 82.4086 -158.634
lowerback 7.69536 0.8484 -1.60238
upperback 3.54222 1.15091 1.66642
thorax -0.718435 0.59577 2.52295
lowerneck -9.39378 -4.02775 -10.4057
upperneck 38.2191 -2.69516 3.85517
head 15.1958 -1.4757 3.25435
rclavicle -1.31334e-014 1.27906e-014
rhumerus -33.1876 -5.88988 -80.6172
rradius 37.9203
rwrist -11.4496
rhand -22.6819 16.4751
rfingers 7.12502
rthumb 3.75027 -13.4716
lclavicle -1.31334e-014 1.27906e-014
lhumerus -35.842 11.4785 80.5911
lradius 33.784
lwrist 4.00558
lhand -18.7614 18.78
lfingers 7.12502
lthumb 7.53543 48.6258
rfemur -34.4841 -15.0793 20.8627
rtibia 59.6399
rfoot -14.5405 -6.49265
rtoes 9.75748
lfemur -7.35989 6.31756 -21.0805
ltibia 32.3127
lfoot -21.3282 -9.45441
ltoes 10.3969
299
root -11.4899 17.3133 20.8068 -160.949 82.2806 -160.217
lowerback 7.52909 0.850258 -1.88974
upperback 3.57775 1.13486 1.64716
thorax -0.593256 0.582977 2.66899
lowerneck -9.44255 -4.04679 -10.492
upperneck 38.2903 -2.7053 3.90974
head 15.2481 -1.48458 3.29476
rclavicle 5.84042e-015 1.42411e-014
rhumerus -33.2315 -6.03581 -80.4614
rradius 37.747
rwrist -11.525
rhand -22.789 16.6367
rfingers 7.12502
rthumb 3.64689 -13.3118
lclavicle 5.84042e-015 1.42411e-014
lhumerus -35.4415 11.0304 80.7954
lradius 33.7441
lwrist 4.10513
lhand -19.0852 18.8136
lfingers 7.12502
lthumb 7.22293 48.6704
rfemur -34.8425 -14.8188 20.775
rtibia 58.2097
rfoot -14.2302 -6.59773
rtoes 12.9865
lfemur -7.15527 5.54961 -21.2617
ltibia 32.162
lfoot -21.4106 -8.78417
ltoes 11.4666
300
root -11.4347 17.3273 20.8111 -159.212 81.9324 -158.571
lowerback 7.44764 0.822999 -1.4608
upperback 3.53368 1.12589 1.59716
thorax -0.585491 0.582879 2.37698
lowerneck -9.36023 -4.10362 -10.3354
upperneck 38.2676 -2.85285 3.95144
head 15.226 -1.51828 3.26164
rclavicle 2.70906e-014 7.95139e-015
rhumerus -33.4395 -6.30252 -80.5182
rradius 37.5213
rwrist -11.6355
rhand -22.9455 16.9838
rfingers 7.12502
rthumb 3.49573 -12.9673
lclavicle 2.70906e-014 7.95139e-015
lhumerus -35.2076 10.2831 80.8524
lradius 33.9103
lwrist 4.60782
lhand -19.4918 19.1052
lfingers 7.12502
lthumb 6.83039 48.975
rfemur -35.1507 -14.6634 21.2151
rtibia 56.6732
rfoot -14.0727 -6.75294
rtoes 15.6786
lfemur -6.96632 4.54361 -20.9594
ltibia 32.0212
lfoot -21.2845 -8.08477
ltoes 12.7581
301
root -11.375 17.3213 20.8052 -160.369 81.6569 -159.717
lowerback 7.38613 0.730438 -1.36258
upperback 3.57644 1.00875 1.47306
thorax -0.497801 0.525262 2.20401
lowerneck -9.27034 -4.117 -10.2931
upperneck 38.0923 -2.9478 4.04465
head 15.1252 -1.54215 3.27215
rclavicle 1.73937e-014 1.2921e-015
rhumerus -33.5192 -6.31119 -80.5849
rradius 37.3462
rwrist -11.8367
rhand -23.0239 16.8607
rfingers 7.12502
rthumb 3.42003 -13.0917
lclavicle 1.73937e-014 1.2921e-015
lhumerus -35.1403 10.1216 80.7817
lradius 34.1655
lwrist 4.78048
lhand -19.4168 18.9871
lfingers 7.12502
lthumb 6.90282 48.8545
rfemur -35.31 -14.9972 21.1671
rtibia 55.1572
rfoot -13.9599 -6.7216
rtoes 12.0635
lfemur -6.63676 4.77873 -20.938
ltibia 31.8389
lfoot -20.9993 -8.92166
ltoes 13.5676
302
root -11.31 17.3001 20.8089 -163.844 81.5202 -163.07
lowerback 7.436 0.631463 -1.95939
upperback 3.67418 0.841002 1.46961
thorax -0.422765 0.434504 2.55003
lowerneck -9.37648 -4.09523 -10.6428
upperneck 38.0784 -2.90131 4.25488
head 15.1541 -1.54753 3.4305
rclavicle -1.19581e-014 4.37326e-015
rhumerus -33.4868 -6.13276 -80.4062
rradius 37.1528
rwrist -11.9766
rhand -23.0843 16.3735
rfingers 7.12502
rthumb 3.36165 -13.5798
lclavicle -1.19581e-014 4.37326e-015
lhumerus -35.1468 10.6395 80.7184
lradius 34.3334
lwrist 4.50079
lhand -19.0092 18.7064
lfingers 7.12502
lthumb 7.29625 48.5606
rfemur -35.2567 -15.2648 20.6772
rtibia 53.6072
rfoot -13.9613 -6.65298
rtoes 8.23686
lfemur -6.17059 5.14799 -21.2632
ltibia 31.6659
lfoot -20.733 -10.0367
ltoes 16.0076
303
root -11.2476 17.2979 20.824 -164.345 81.4076 -163.52
lowerback 7.53504 0.626187 -2.23536
upperback 3.63786 0.814836 1.54827
thorax -0.517196 0.419239 2.7879
lowerneck -9.41358 -4.09775 -10.892
upperneck 38.2446 -2.87036 4.40393
head 15.2544 -1.54904 3.55193
rclavicle 1.0312e-014 -1.2424e-015
rhumerus -33.6072 -6.28999 -80.1811
rradius 36.7278
rwrist -11.8968
rhand -23.1217 16.191
rfingers 7.12502
rthumb 3.32557 -13.7628
lclavicle 1.0312e-014 -1.2424e-015
lhumerus -35.2025 10.8675 80.5867
lradius 34.4829
lwrist 4.32905
lhand -18.5983 18.6461
lfingers 7.12502
lthumb 7.6929 48.4861
rfemur -35.2469 -14.8222 20.6163
rtibia 52.0274
rfoot -14.0314 -6.67575
rtoes 10.6768
lfemur -5.82331 5.16805 -21.1617
ltibia 31.4803
lfoot -20.5045 -10.4834
ltoes 18.0219
304
root -11.1879 17.3029 20.8321 -166.003 81.305 -165.285
lowerback 7.48564 0.739283 -2.41021
upperback 3.57612 0.947996 1.36794
thorax -0.561831 0.484853 2.68933
lowerneck -9.40813 -4.22964 -10.6648
upperneck 38.4783 -3.05988 4.32467
head 15.3825 -1.6023 3.4596
rclavicle -1.64494e-014 -8.99501e-015
rhumerus -33.8111 -7.16721 -79.9863
rradius 36.2261
rwrist -11.5403
rhand -23.285 16.2929
rfingers 7.12502
rthumb 3.16789 -13.6633
lclavicle -1.64494e-014 -8.99501e-015
lhumerus -34.9935 10.1381 80.5969
lradius 34.5766
lwrist 4.7015
lhand -18.5141 18.9516
lfingers 7.12502
lthumb 7.77413 48.7887
rfemur -35.477 -14.5605 20.3559
rtibia 50.4731
rfoot -13.8335 -6.51614
rtoes 12.641
lfemur -5.60982 5.43645 -21.281
ltibia 31.2559
lfoot -20.1243 -10.8834
ltoes 19.0087
305
root -11.1169 17.3005 20.828 -166.432 81.2739 -165.803
lowerback 7.17941 0.817409 -2.3016
upperback 3.6279 1.0626 1.22902
thorax -0.342633 0.540292 2.47984
lowerneck -9.41914 -4.34373 -10.367
upperneck 38.5345 -3.19859 4.06548
head 15.4138 -1.64992 3.275
rclavicle -6.74625e-015 -1.98785e-015
rhumerus -33.8947 -7.74069 -79.8873
rradius 35.9258
rwrist -11.474
rhand -23.3582 16.1066
rfingers 7.12502
rthumb 3.09721 -13.8506
lclavicle -6.74625e-015 -1.98785e-015
lhumerus -34.6974 9.30754 80.7967
lradius 34.6216
lwrist 5.34045
lhand -19.0126 19.0504
lfingers 7.12502
lthumb 7.29302 48.9047
rfemur -35.5771 -14.4581 20.2268
rtibia 48.9021
rfoot -13.779 -5.97462
rtoes 12.7236
lfemur -5.27238 5.36405 -21.3457
ltibia 31.039
lfoot -20.0651 -10.9332
ltoes 19.7558
306
root -11.0415 17.2955 20.8193 -165.581 81.2817 -164.871
lowerback 6.9718 0.76097 -1.96404
upperback 3.72771 1.01395 1.16639
thorax -0.11629 0.517747 2.23243
lowerneck -9.3349 -4.26119 -10.2117
upperneck 38.2473 -3.1171 3.95447
head 15.232 -1.61073 3.19966
rclavicle -3.64521e-014 -1.37161e-014
rhumerus -33.9679 -7.71973 -79.9711
rradius 35.7638
rwrist -11.7576
rhand -23.1385 16.0643
rfingers 7.12502
rthumb 3.30939 -13.8898
lclavicle -3.64521e-014 -1.37161e-014
lhumerus -34.5986 9.39862 80.6874
lradius 34.6545
lwrist 5.35562
lhand -19.4029 18.6579
lfingers 7.12502
lthumb 6.91625 48.5249
rfemur -35.3735 -14.1859 20.2262
rtibia 47.3197
rfoot -14.0119 -5.26575
rtoes 13.4351
lfemur -4.77193 5.24556 -21.1735
ltibia 30.8854
lfoot -20.3924 -11.1501
ltoes 19.7585
307
root -10.988 17.2881 20.8278 -166.388 80.9732 -165.567
lowerback 7.20561 0.673412 -2.02559
upperback 3.73572 0.892366 1.15302
thorax -0.231264 0.458662 2.25935
lowerneck -9.33517 -4.19434 -10.2662
upperneck 38.095 -3.08706 4.12949
head 15.1558 -1.58454 3.28288
rclavicle 1.45361e-014 -3.37934e-015
rhumerus -34.0978 -7.95185 -79.8175
rradius 35.4592
rwrist -11.7819
rhand -23.1476 16.3275
rfingers 7.12502
rthumb 3.30057 -13.6267
lclavicle 1.45361e-014 -3.37934e-015
lhumerus -34.5745 9.75319 80.5581
lradius 34.7123
lwrist 4.8826
lhand -19.2628 18.5766
lfingers 7.12502
lthumb 7.05144 48.4392
rfemur -35.2485 -13.9475 20.1155
rtibia 45.7356
rfoot -13.7086 -5.34971
rtoes 9.1241
lfemur -4.46058 5.32035 -21.0191
ltibia 30.7988
lfoot -20.5277 -11.7315
ltoes 19.0048
